<svg width="12" height="12" viewBox="0 0 12 12" fill="none" xmlns="http://www.w3.org/2000/svg">
<path d="M10.2343 1.71429H9.21429V0.428571C9.21429 0.314907 9.16913 0.205898 9.08876 0.125526C9.00839 0.0451529 8.89938 0 8.78571 0H4.34143C3.19036 0.00113462 2.08676 0.458898 1.27283 1.27283C0.458898 2.08676 0.00113462 3.19036 0 4.34143V11.5714C0 11.6851 0.0451529 11.7941 0.125526 11.8745C0.205898 11.9548 0.314907 12 0.428571 12C0.542236 12 0.651244 11.9548 0.731617 11.8745C0.81199 11.7941 0.857143 11.6851 0.857143 11.5714V4.34143C0.858277 3.41769 1.22573 2.5321 1.87892 1.87892C2.5321 1.22573 3.41769 0.858277 4.34143 0.857143H8.35714V1.71429H7.34143C6.87199 1.71429 6.42179 1.90077 6.08985 2.23271C5.75791 2.56465 5.57143 3.01485 5.57143 3.48429V3.85714C5.57143 3.97081 5.61658 4.07982 5.69695 4.16019C5.77733 4.24056 5.88634 4.28571 6 4.28571H11.5714C11.6851 4.28571 11.7941 4.24056 11.8745 4.16019C11.9548 4.07982 12 3.97081 12 3.85714V3.48429C12 3.01559 11.8141 2.56604 11.4831 2.23422C11.1521 1.9024 10.703 1.71542 10.2343 1.71429ZM6.42857 3.42857C6.44378 3.19661 6.5465 2.97909 6.71596 2.81997C6.88542 2.66085 7.10897 2.57202 7.34143 2.57143H10.2343C10.466 2.5731 10.6885 2.66241 10.857 2.82142C11.0256 2.98043 11.1277 3.19735 11.1429 3.42857H6.42857Z" fill="#6E6E6E"/>
<path d="M9.8228 6.55289V5.69575C9.8228 5.58208 9.77765 5.47308 9.69728 5.3927C9.61691 5.31233 9.5079 5.26718 9.39423 5.26718C9.28057 5.26718 9.17156 5.31233 9.09119 5.3927C9.01081 5.47308 8.96566 5.58208 8.96566 5.69575V6.55289C8.96566 6.66656 9.01081 6.77556 9.09119 6.85594C9.17156 6.93631 9.28057 6.98146 9.39423 6.98146C9.5079 6.98146 9.61691 6.93631 9.69728 6.85594C9.77765 6.77556 9.8228 6.66656 9.8228 6.55289ZM10.2599 6.59146C10.1463 6.59146 10.0373 6.63662 9.9569 6.71699C9.87653 6.79736 9.83138 6.90637 9.83138 7.02003V7.87718C9.83138 7.99084 9.87653 8.09985 9.9569 8.18022C10.0373 8.2606 10.1463 8.30575 10.2599 8.30575C10.3736 8.30575 10.4826 8.2606 10.563 8.18022C10.6434 8.09985 10.6885 7.99084 10.6885 7.87718V7.02003C10.6885 6.90637 10.6434 6.79736 10.563 6.71699C10.4826 6.63662 10.3736 6.59146 10.2599 6.59146ZM8.94852 7.17003C8.83485 7.17003 8.72585 7.21519 8.64547 7.29556C8.5651 7.37593 8.51995 7.48494 8.51995 7.59861V8.45575C8.51995 8.56941 8.5651 8.67842 8.64547 8.75879C8.72585 8.83917 8.83485 8.88432 8.94852 8.88432C9.06218 8.88432 9.17119 8.83917 9.25156 8.75879C9.33194 8.67842 9.37709 8.56941 9.37709 8.45575V7.59861C9.37709 7.48494 9.33194 7.37593 9.25156 7.29556C9.17119 7.21519 9.06218 7.17003 8.94852 7.17003ZM9.85709 8.57146C9.74343 8.57146 9.63442 8.61662 9.55404 8.69699C9.47367 8.77736 9.42852 8.88637 9.42852 9.00003V9.85718C9.42852 9.97084 9.47367 10.0799 9.55404 10.1602C9.63442 10.2406 9.74343 10.2857 9.85709 10.2857C9.97075 10.2857 10.0798 10.2406 10.1601 10.1602C10.2405 10.0799 10.2857 9.97084 10.2857 9.85718V9.00003C10.2857 8.88637 10.2405 8.77736 10.1601 8.69699C10.0798 8.61662 9.97075 8.57146 9.85709 8.57146ZM10.4657 4.41003C10.352 4.41003 10.243 4.45519 10.1626 4.53556C10.0822 4.61593 10.0371 4.72494 10.0371 4.83861V5.69575C10.0371 5.80941 10.0822 5.91842 10.1626 5.99879C10.243 6.07917 10.352 6.12432 10.4657 6.12432C10.5793 6.12432 10.6883 6.07917 10.7687 5.99879C10.8491 5.91842 10.8942 5.80941 10.8942 5.69575V4.83861C10.8942 4.72494 10.8491 4.61593 10.7687 4.53556C10.6883 4.45519 10.5793 4.41003 10.4657 4.41003ZM8.73423 6.27861V5.42146C8.73423 5.3078 8.68908 5.19879 8.60871 5.11842C8.52833 5.03804 8.41932 4.99289 8.30566 4.99289C8.192 4.99289 8.08299 5.03804 8.00262 5.11842C7.92224 5.19879 7.87709 5.3078 7.87709 5.42146V6.27861C7.87709 6.39227 7.92224 6.50128 8.00262 6.58165C8.08299 6.66202 8.192 6.70718 8.30566 6.70718C8.41932 6.70718 8.52833 6.66202 8.60871 6.58165C8.68908 6.50128 8.73423 6.39227 8.73423 6.27861ZM7.62423 5.85861V5.00146C7.62423 4.8878 7.57908 4.77879 7.49871 4.69842C7.41833 4.61804 7.30933 4.57289 7.19566 4.57289C7.082 4.57289 6.97299 4.61804 6.89262 4.69842C6.81224 4.77879 6.76709 4.8878 6.76709 5.00146V5.85861C6.76709 5.97227 6.81224 6.08128 6.89262 6.16165C6.97299 6.24202 7.082 6.28718 7.19566 6.28718C7.30933 6.28718 7.41833 6.24202 7.49871 6.16165C7.57908 6.08128 7.62423 5.97227 7.62423 5.85861ZM8.1428 7.87718V7.02003C8.1428 6.90637 8.09765 6.79736 8.01728 6.71699C7.93691 6.63662 7.8279 6.59146 7.71423 6.59146C7.60057 6.59146 7.49156 6.63662 7.41119 6.71699C7.33081 6.79736 7.28566 6.90637 7.28566 7.02003V7.87718C7.28566 7.99084 7.33081 8.09985 7.41119 8.18022C7.49156 8.2606 7.60057 8.30575 7.71423 8.30575C7.8279 8.30575 7.93691 8.2606 8.01728 8.18022C8.09765 8.09985 8.1428 7.99084 8.1428 7.87718ZM8.30566 8.85003C8.192 8.85003 8.08299 8.89519 8.00262 8.97556C7.92224 9.05593 7.87709 9.16494 7.87709 9.27861V10.1357C7.87709 10.2494 7.92224 10.3584 8.00262 10.4388C8.08299 10.5192 8.192 10.5643 8.30566 10.5643C8.41932 10.5643 8.52833 10.5192 8.60871 10.4388C8.68908 10.3584 8.73423 10.2494 8.73423 10.1357V9.27861C8.73423 9.16494 8.68908 9.05593 8.60871 8.97556C8.52833 8.89519 8.41932 8.85003 8.30566 8.85003Z" fill="#6E6E6E"/>
</svg>
