<svg width="60" height="60" viewBox="0 0 60 60" fill="none" xmlns="http://www.w3.org/2000/svg">
<path d="M29.6345 21.6715C29.7492 21.7239 29.8738 21.751 29.9998 21.751C30.1259 21.751 30.2505 21.7239 30.3652 21.6715C31.9222 20.9646 33.306 19.9263 34.4201 18.629C36.0331 16.7313 36.8858 14.4557 36.8858 12.0485V8.14968C36.8858 7.92553 36.8002 7.70986 36.6464 7.54677C36.4927 7.38368 36.2824 7.28551 36.0586 7.27233C34.5864 7.19376 33.1524 6.77497 31.8692 6.04885C31.4099 5.78243 30.9763 5.47402 30.5739 5.12756C30.4143 4.98991 30.2106 4.91419 29.9998 4.91419C29.7891 4.91419 29.5854 4.98991 29.4258 5.12756C29.0235 5.47406 28.5899 5.78246 28.1306 6.0488C26.8474 6.77493 25.4134 7.19373 23.9412 7.27233C23.7174 7.28551 23.5071 7.38368 23.3534 7.54677C23.1996 7.70986 23.114 7.92553 23.114 8.14968V12.0485C23.114 14.4559 23.9668 16.7316 25.5799 18.6292C26.6939 19.9264 28.0776 20.9647 29.6345 21.6715ZM24.8718 8.94932C26.3299 8.76775 27.7374 8.29862 29.0129 7.56912C29.3539 7.37115 29.6835 7.15396 29.9999 6.91859C30.3163 7.15395 30.6458 7.37115 30.9868 7.56912C32.2623 8.29864 33.6699 8.76777 35.128 8.94932V12.0485C35.128 14.0331 34.4201 15.9149 33.0805 17.4909C32.2233 18.4892 31.1761 19.3071 29.9999 19.897C28.8238 19.3072 27.7767 18.4894 26.9195 17.4911C25.5799 15.9152 24.8718 14.0332 24.8718 12.0485V8.94932ZM59.7421 27.5196C59.6605 27.438 59.5636 27.3733 59.4569 27.3291C59.3503 27.2849 59.236 27.2622 59.1206 27.2622C59.0052 27.2622 58.8909 27.2849 58.7842 27.3291C58.6776 27.3733 58.5807 27.438 58.4991 27.5196L53.4178 32.6009L41.3658 20.2947C42.3075 18.7642 42.928 17.0581 43.1894 15.2802L46.6148 11.8305C46.779 11.6651 46.8708 11.4412 46.87 11.2081C46.8692 10.975 46.7758 10.7518 46.6103 10.5875C46.4449 10.4233 46.2211 10.3315 45.9879 10.3323C45.7548 10.3331 45.5316 10.4265 45.3674 10.5919L43.3154 12.6584C43.1416 9.22324 41.6469 5.98817 39.1436 3.62928C36.6404 1.27039 33.3223 -0.0297676 29.8829 0.000517436C26.4435 0.0308025 23.1488 1.38919 20.6875 3.79179C18.2262 6.1944 16.7887 9.45529 16.6754 12.893L14.2914 10.5804C14.124 10.4184 13.8992 10.3294 13.6663 10.3331C13.4334 10.3368 13.2114 10.4327 13.0493 10.5999C12.8871 10.7671 12.7979 10.9919 12.8013 11.2248C12.8047 11.4577 12.9004 11.6797 13.0674 11.8421L16.8471 15.5085C17.1325 17.2401 17.7592 18.8978 18.6905 20.3852L6.6553 32.6743L1.50063 27.5196C1.41904 27.438 1.32215 27.3732 1.2155 27.3289C1.10885 27.2847 0.994537 27.2619 0.879086 27.2619C0.763635 27.2619 0.64931 27.2846 0.542642 27.3288C0.435975 27.3729 0.339054 27.4377 0.257418 27.5193C0.175782 27.601 0.11103 27.6979 0.0668615 27.8046C0.0226928 27.9112 -2.69617e-05 28.0256 2.40112e-08 28.141C2.70098e-05 28.2565 0.0228003 28.3708 0.0670188 28.4774C0.111237 28.5841 0.176035 28.681 0.257709 28.7626L5.88529 34.3901C5.95999 34.519 6.06708 34.626 6.19594 34.7007L6.96986 35.4747C7.37683 35.8842 7.86103 36.2089 8.39441 36.43C8.92779 36.6511 9.49975 36.7641 10.0771 36.7624C10.486 36.7625 10.893 36.7057 11.2862 36.5936C11.3085 37.1904 11.3734 37.7848 11.4804 38.3723C11.0709 38.5604 10.6982 38.8199 10.3798 39.1388L8.45037 41.0682C7.91777 41.6009 7.55508 42.2795 7.40814 43.0183C7.26121 43.757 7.33664 44.5228 7.62489 45.2187C7.91315 45.9146 8.40128 46.5094 9.02757 46.9279C9.65385 47.3464 10.3902 47.5698 11.1434 47.5699C11.2619 47.5699 11.3796 47.5639 11.4962 47.5533C11.4469 48.0807 11.5083 48.6126 11.6764 49.1149C11.8445 49.6172 12.1156 50.079 12.4724 50.4705C12.8292 50.862 13.2638 51.1748 13.7483 51.3887C14.2329 51.6027 14.7568 51.7132 15.2865 51.713C15.4045 51.713 15.5215 51.7071 15.6376 51.6966C15.627 51.8126 15.6211 51.9296 15.6211 52.0475C15.621 52.5476 15.7194 53.0429 15.9107 53.5049C16.1021 53.967 16.3826 54.3868 16.7363 54.7403C17.0901 55.0939 17.51 55.3742 17.9721 55.5654C18.4343 55.7565 18.9296 55.8547 19.4297 55.8542C19.5469 55.8542 19.6639 55.8488 19.7809 55.8378C19.7702 55.9545 19.7643 56.0721 19.7643 56.1907C19.7629 56.691 19.8608 57.1867 20.0523 57.6489C20.2438 58.1112 20.525 58.5309 20.8798 58.8837V58.8838C21.5946 59.5969 22.5631 59.9974 23.5728 59.9974C24.5826 59.9974 25.5511 59.5969 26.2659 58.8838L27.5349 57.6147L28.8042 58.884C29.3579 59.4382 30.0691 59.808 30.8408 59.943C31.6124 60.0781 32.4069 59.9717 33.1159 59.6386C33.8249 59.3054 34.4139 58.7616 34.8024 58.0814C35.191 57.4012 35.3602 56.6177 35.287 55.8377C35.4045 55.8486 35.5222 55.8541 35.6402 55.8542C36.1403 55.8546 36.6356 55.7564 37.0977 55.5653C37.5599 55.3741 37.9798 55.0938 38.3335 54.7403C38.6872 54.3867 38.9678 53.9669 39.1591 53.5049C39.3505 53.0429 39.4489 52.5476 39.4488 52.0475C39.4488 51.9296 39.4429 51.8126 39.4324 51.6966C39.5484 51.7071 39.6654 51.713 39.7833 51.713C40.7934 51.713 41.7621 51.3117 42.4763 50.5974C43.1906 49.8832 43.5919 48.9145 43.5919 47.9044C43.5919 47.7864 43.5861 47.6694 43.5755 47.5533C43.6915 47.5639 43.8085 47.5697 43.9265 47.5697C44.6797 47.5698 45.4161 47.3464 46.0424 46.9279C46.6688 46.5094 47.1569 45.9146 47.4452 45.2187C47.7335 44.5228 47.8089 43.757 47.6619 43.0182C47.515 42.2794 47.1522 41.6007 46.6196 41.0681L45.5544 40.003C46.7927 39.0609 47.85 37.9022 48.6749 36.583C49.0801 36.7022 49.5003 36.7627 49.9226 36.7624C50.4999 36.7641 51.0718 36.6511 51.6052 36.4301C52.1385 36.2091 52.6227 35.8845 53.0297 35.475L59.7421 28.7626C59.9069 28.5977 59.9995 28.3742 59.9995 28.1411C59.9995 27.908 59.9069 27.6845 59.7421 27.5196L59.7421 27.5196ZM18.5447 14.9931C18.5434 14.9805 18.5413 14.968 18.5395 14.9554C18.2739 13.0897 18.4679 11.1873 19.1046 9.41358C19.7413 7.63983 20.8014 6.04836 22.1929 4.77742C23.5844 3.50648 25.2651 2.5945 27.0891 2.1207C28.9132 1.64691 30.8253 1.62563 32.6594 2.05872C34.4935 2.4918 36.1941 3.36615 37.6136 4.60582C39.033 5.84548 40.1283 7.41296 40.8043 9.1721C41.4803 10.9312 41.7166 12.8288 41.4926 14.7C41.2686 16.5712 40.5911 18.3594 39.519 19.9093C39.5171 19.9121 39.5151 19.9149 39.5132 19.9177C38.191 21.8297 36.3235 23.2992 34.1541 24.1345C31.9847 24.9698 29.614 25.1323 27.3508 24.6008C25.0877 24.0693 23.0372 22.8685 21.4664 21.1547C19.8957 19.441 18.8776 17.2939 18.5447 14.9931ZM10.0771 35.0047C9.73073 35.0056 9.3876 34.9378 9.06761 34.8052C8.74763 34.6725 8.45715 34.4777 8.21302 34.232L7.89837 33.9173L19.7349 21.8311C20.4311 22.6703 21.2268 23.4217 22.1044 24.0688L11.9403 34.2328C11.6962 34.4783 11.4058 34.6729 11.086 34.8054C10.7662 34.9379 10.4233 35.0056 10.0771 35.0047ZM12.5934 45.2114C12.403 45.4018 12.1769 45.5529 11.9281 45.656C11.6793 45.759 11.4127 45.8121 11.1434 45.8121C10.874 45.8121 10.6074 45.759 10.3586 45.656C10.1098 45.5529 9.88371 45.4018 9.69329 45.2114V45.2113C9.30871 44.8267 9.09266 44.3051 9.09266 43.7612C9.09266 43.2173 9.30871 42.6957 9.69329 42.3112L11.6227 40.3818C11.813 40.191 12.0391 40.0396 12.288 39.9362C12.5369 39.8328 12.8038 39.7795 13.0733 39.7793C13.3428 39.7791 13.6097 39.8321 13.8588 39.9352C14.1078 40.0382 14.3341 40.1894 14.5247 40.3799C14.7153 40.5705 14.8664 40.7968 14.9695 41.0458C15.0725 41.2949 15.1255 41.5618 15.1253 41.8313C15.1252 42.1008 15.0719 42.3677 14.9685 42.6166C14.8651 42.8655 14.7137 43.0916 14.5229 43.2819L12.5934 45.2114ZM15.2865 49.9552C15.0171 49.9559 14.7502 49.9032 14.5013 49.8001C14.2524 49.697 14.0264 49.5456 13.8364 49.3545V49.3544C13.4524 48.9695 13.2368 48.448 13.2368 47.9044C13.2368 47.3607 13.4524 46.8392 13.8364 46.4543L15.7658 44.5249C16.1506 44.1411 16.6719 43.9257 17.2154 43.926C17.7588 43.9264 18.2799 44.1424 18.6642 44.5267C19.0484 44.911 19.2645 45.4321 19.2648 45.9755C19.2652 46.519 19.0498 47.0403 18.666 47.4251L16.7366 49.3545C16.5466 49.5456 16.3206 49.697 16.0717 49.8001C15.8228 49.9032 15.5559 49.9559 15.2865 49.9552ZM17.9796 53.4976C17.595 53.113 17.3789 52.5914 17.3789 52.0475C17.3789 51.5037 17.595 50.9821 17.9796 50.5975L19.909 48.668C20.2937 48.2842 20.8151 48.0689 21.3585 48.0692C21.902 48.0696 22.4231 48.2856 22.8073 48.6699C23.1916 49.0541 23.4076 49.5752 23.408 50.1187C23.4083 50.6621 23.193 51.1835 22.8092 51.5683L20.8798 53.4976C20.4949 53.8817 19.9734 54.0974 19.4297 54.0974C18.886 54.0974 18.3644 53.8817 17.9796 53.4976V53.4976ZM26.9524 55.7113L25.023 57.6408C24.6381 58.0248 24.1166 58.2405 23.5728 58.2405C23.0291 58.2405 22.5076 58.0248 22.1227 57.6408V57.6409C21.7381 57.2563 21.5221 56.7346 21.5221 56.1908C21.5221 55.6469 21.7381 55.1252 22.1227 54.7406L24.0521 52.8112C24.4369 52.4277 24.9582 52.2126 25.5014 52.2131C26.0447 52.2136 26.5656 52.4296 26.9497 52.8137C27.3339 53.1978 27.5499 53.7187 27.5504 54.262C27.5509 54.8052 27.3358 55.3265 26.9524 55.7113H26.9524ZM45.9773 43.7612C45.9773 44.1668 45.857 44.5633 45.6317 44.9006C45.4063 45.2378 45.086 45.5007 44.7113 45.6559C44.3366 45.8111 43.9242 45.8517 43.5264 45.7725C43.1286 45.6934 42.7632 45.4981 42.4764 45.2113L36.1788 38.9137C36.0972 38.832 36.0003 38.7671 35.8936 38.7229C35.787 38.6787 35.6726 38.6559 35.5572 38.6558C35.4417 38.6558 35.3273 38.6785 35.2207 38.7227C35.114 38.7669 35.017 38.8316 34.9354 38.9133C34.8537 38.9949 34.789 39.0919 34.7448 39.1986C34.7006 39.3053 34.6779 39.4196 34.6779 39.5351C34.678 39.6505 34.7008 39.7649 34.745 39.8715C34.7892 39.9782 34.8541 40.0751 34.9358 40.1567L41.2334 46.4543C41.4242 46.6446 41.5756 46.8707 41.679 47.1196C41.7823 47.3685 41.8356 47.6354 41.8358 47.9049C41.836 48.1744 41.783 48.4413 41.68 48.6904C41.5769 48.9394 41.4258 49.1657 41.2352 49.3562C41.0446 49.5468 40.8183 49.698 40.5693 49.801C40.3203 49.9041 40.0533 49.957 39.7838 49.9569C39.5143 49.9567 39.2475 49.9034 38.9986 49.8C38.7497 49.6967 38.5236 49.5452 38.3332 49.3544L32.0358 43.0568C31.8709 42.892 31.6474 42.7994 31.4142 42.7994C31.1811 42.7994 30.9576 42.892 30.7927 43.0568C30.6279 43.2217 30.5353 43.4452 30.5353 43.6783C30.5353 43.9115 30.6279 44.135 30.7927 44.2999L37.0902 50.5975C37.281 50.7878 37.4323 51.0139 37.5357 51.2628C37.639 51.5117 37.6923 51.7785 37.6924 52.0479C37.6926 52.3174 37.6396 52.5843 37.5365 52.8333C37.4335 53.0823 37.2824 53.3085 37.0918 53.4991C36.9013 53.6897 36.675 53.8408 36.426 53.9438C36.177 54.0469 35.9102 54.0999 35.6407 54.0997C35.3712 54.0996 35.1044 54.0464 34.8555 53.943C34.6066 53.8397 34.3805 53.6883 34.1902 53.4976L27.8925 47.2C27.8109 47.1184 27.714 47.0536 27.6073 47.0094C27.5007 46.9652 27.3864 46.9424 27.271 46.9424C27.1556 46.9424 27.0413 46.9651 26.9346 47.0093C26.828 47.0534 26.731 47.1181 26.6494 47.1997C26.5678 47.2813 26.503 47.3782 26.4588 47.4849C26.4146 47.5915 26.3919 47.7058 26.3918 47.8212C26.3918 47.9366 26.4145 48.051 26.4587 48.1576C26.5028 48.2643 26.5675 48.3612 26.6491 48.4428L32.9467 54.7404C33.1371 54.9308 33.2882 55.1568 33.3913 55.4056C33.4944 55.6544 33.5475 55.921 33.5476 56.1903C33.5476 56.4596 33.4946 56.7263 33.3916 56.9751C33.2886 57.2239 33.1376 57.45 32.9472 57.6405C32.7568 57.8309 32.5308 57.982 32.282 58.0851C32.0332 58.1882 31.7666 58.2413 31.4973 58.2414C31.228 58.2414 30.9613 58.1884 30.7125 58.0854C30.4637 57.9824 30.2376 57.8314 30.0471 57.641L28.7143 56.3081C29.0811 55.7324 29.2864 55.0686 29.3088 54.3863C29.3311 53.704 29.1697 53.0282 28.8413 52.4297C28.513 51.8312 28.0299 51.3319 27.4424 50.9841C26.855 50.6363 26.1849 50.4528 25.5022 50.4527C25.3843 50.4527 25.2672 50.4586 25.1512 50.4692C25.1617 50.3531 25.1676 50.2361 25.1676 50.1182C25.1676 49.1081 24.7663 48.1394 24.0521 47.4252C23.3378 46.7109 22.3692 46.3096 21.3591 46.3095C21.2411 46.3095 21.1241 46.3154 21.008 46.326C21.0186 46.21 21.0245 46.093 21.0245 45.975C21.0244 44.965 20.6231 43.9963 19.9089 43.282C19.1947 42.5678 18.226 42.1665 17.2159 42.1664C17.098 42.1664 16.9809 42.1723 16.8649 42.1828C16.8754 42.0668 16.8813 41.9498 16.8813 41.8319C16.8818 40.8444 16.4984 39.8955 15.8119 39.1857C15.1255 38.4758 14.1899 38.0608 13.203 38.0283C13.0605 37.2315 13.008 36.4211 13.0464 35.6126L13.1832 35.4758L13.1844 35.4747L13.1849 35.4741L23.5831 25.0759C23.5958 25.0632 23.6072 25.0496 23.619 25.0362C24.9971 25.791 26.4987 26.2943 28.0533 26.5226L22.7413 32.4594C22.2762 32.9797 22.0279 33.6583 22.0472 34.3559C22.0666 35.0535 22.3521 35.7172 22.8453 36.211C23.7814 37.1448 25.0496 37.6693 26.3719 37.6693C27.6941 37.6692 28.9623 37.1447 29.8984 36.2108L34.5867 31.5214L45.3765 42.3111C45.5676 42.5011 45.7191 42.7271 45.8222 42.976C45.9253 43.2249 45.978 43.4918 45.9773 43.7612ZM46.2604 36.9198C45.6815 37.6048 45.0228 38.2182 44.2984 38.7469L35.3503 29.7989C35.2972 29.7576 35.2494 29.7099 35.2079 29.657C35.1263 29.5754 35.0294 29.5106 34.9228 29.4665C34.8161 29.4223 34.7018 29.3996 34.5864 29.3996C34.471 29.3996 34.3567 29.4223 34.2501 29.4665C34.1434 29.5107 34.0466 29.5755 33.965 29.6571L28.6554 34.9679C28.0493 35.5727 27.2281 35.9123 26.3719 35.9123C25.5157 35.9123 24.6944 35.5727 24.0883 34.968C23.9126 34.7921 23.8109 34.5556 23.804 34.307C23.7972 34.0585 23.8857 33.8167 24.0514 33.6314L30.2877 26.6615C32.4319 26.6178 34.5335 26.0542 36.4117 25.0189C36.5282 25.1701 36.6543 25.3136 36.7892 25.4485L46.8154 35.4747C46.9126 35.572 47.014 35.6637 47.1184 35.7507C46.858 36.1586 46.5714 36.5491 46.2605 36.9198H46.2604ZM51.7864 34.2323C51.5417 34.4772 51.2511 34.6714 50.9313 34.804C50.6114 34.9365 50.2686 35.0047 49.9224 35.0047C49.5762 35.0046 49.2334 34.9364 48.9136 34.8038C48.5938 34.6712 48.3033 34.4769 48.0586 34.232L38.0321 24.2055C37.9866 24.1599 37.944 24.1121 37.9022 24.0638C38.8052 23.397 39.6211 22.6198 40.331 21.7503L52.1747 33.8439L51.7864 34.2323Z" fill="white"/>
</svg>
