<svg width="21" height="18" viewBox="0 0 21 18" fill="none" xmlns="http://www.w3.org/2000/svg">
<path d="M6.1318 0.368084C4.49459 0.368117 2.97863 0.890559 1.88013 1.91848C0.78164 2.9464 0.118392 4.47564 0.118389 6.38151C0.118391 8.38172 1.52496 10.2406 3.43054 12.0661C5.33606 13.8916 7.78723 15.6928 10.0311 17.5627C10.1632 17.6684 10.3689 17.6684 10.5009 17.5627C12.7441 15.6935 15.1899 13.8862 17.1016 12.066C19.0132 10.2459 20.4372 8.40263 20.4372 6.38157C20.4372 4.45446 19.7514 2.9413 18.6519 1.91846C17.5525 0.895689 16.0592 0.368124 14.4238 0.368164C12.7411 0.368121 11.3194 1.42955 10.266 2.50565C9.21704 1.43595 7.81067 0.368124 6.1318 0.368084Z" fill="white"/>
</svg>
