<svg width="48" height="47" viewBox="0 0 48 47" fill="#4288F0" xmlns="http://www.w3.org/2000/svg">
<path d="M8.0284 46.7023C18.4772 46.7023 28.9259 46.7023 39.3001 46.7023C39.7479 46.7023 40.0464 46.4037 40.0464 45.9559V22.073L41.6137 23.4911C42.8079 24.536 44.5991 24.536 45.7186 23.4911C47.062 22.2969 47.062 20.2072 45.7186 18.9384L25.7167 0.727682C24.5972 -0.242561 22.8806 -0.242561 21.7611 0.727682L13.626 8.11646V4.38475H14.8947C15.3425 4.38475 15.6411 4.08622 15.6411 3.63841C15.6411 3.19061 15.3425 2.89207 14.8947 2.89207C11.3123 2.89207 8.92401 2.89207 5.34157 2.89207C4.89377 2.89207 4.59523 3.19061 4.59523 3.63841C4.59523 4.08622 4.89377 4.38475 5.34157 4.38475H6.61035V14.4604L1.6845 18.9384C0.34109 20.1325 0.34109 22.2969 1.6845 23.4911C2.80401 24.536 4.66987 24.536 5.78938 23.4911L7.35669 22.073V36.1789H5.34157V34.8355C5.34157 34.3876 5.04304 34.0891 4.59523 34.0891C4.14743 34.0891 3.84889 34.3876 3.84889 34.8355V36.1789H1.60987V34.8355C1.60987 34.3876 1.31133 34.0891 0.863528 34.0891C0.415724 34.0891 0.117188 34.3876 0.117188 34.8355V42.8213C0.117188 43.2691 0.415724 43.5676 0.863528 43.5676C1.31133 43.5676 1.60987 43.2691 1.60987 42.8213V41.4779H3.84889V42.8213C3.84889 43.2691 4.14743 43.5676 4.59523 43.5676C5.04304 43.5676 5.34157 43.2691 5.34157 42.8213V41.4779H7.28206V45.8813C7.28206 46.3291 7.65523 46.7023 8.0284 46.7023ZM24.5972 45.2096V29.3872H34.2996V45.2096H24.5972ZM8.0284 4.38475H12.0586V9.45987L8.0284 13.1169V4.38475ZM4.7445 22.3716C4.14743 22.894 3.25182 22.894 2.65475 22.3716C1.98304 21.7745 1.98304 20.655 2.65475 20.0579C4.7445 18.1921 -4.80866 26.775 22.7313 1.84719C23.2537 1.32475 24.1494 1.32475 24.6718 1.84719L44.7484 20.0579C45.4201 20.655 45.4201 21.7745 44.7484 22.3716C44.1513 22.894 43.2557 22.894 42.6586 22.3716L24.224 5.65353C23.9255 5.42963 23.4777 5.42963 23.2537 5.65353C10.3421 17.2964 13.1781 14.6843 4.7445 22.3716ZM23.7016 7.22085L38.6284 20.7296V45.2096H35.7923V29.3872H36.2401C36.6879 29.3872 36.9864 29.0886 36.9864 28.6408C36.9864 28.193 36.6879 27.8945 36.2401 27.8945C32.2098 27.8945 26.6869 27.8945 22.6567 27.8945C22.2089 27.8945 21.9103 28.193 21.9103 28.6408C21.9103 29.0886 22.2089 29.3872 22.6567 29.3872H23.1045V45.2096H8.77474V20.7296L23.7016 7.22085ZM1.60987 39.9852V37.5969H3.84889V39.9852H1.60987ZM5.34157 39.9852V37.5969H7.28206V39.9852H5.34157Z" fill="inherit"/>
<path d="M23.7016 23.8643C26.7616 23.8643 29.2992 21.3267 29.2992 18.2667C29.2992 15.2067 26.7616 12.6692 23.7016 12.6692C20.6416 12.6692 18.1041 15.2067 18.1041 18.2667C18.1041 21.3267 20.6416 23.8643 23.7016 23.8643ZM19.6714 19.0131H22.9553V22.297C21.3133 21.9984 19.9699 20.655 19.6714 19.0131ZM24.448 22.297V19.0131H27.7319C27.4333 20.655 26.0899 21.9984 24.448 22.297ZM27.7319 17.5204H24.448V14.2365C26.0899 14.535 27.4333 15.8785 27.7319 17.5204ZM22.9553 14.2365V17.5204H19.6714C19.9699 15.8785 21.3133 14.535 22.9553 14.2365ZM11.1631 41.1794H20.7162C21.1641 41.1794 21.4626 40.8809 21.4626 40.4331V31.9994C21.4626 31.5516 21.1641 31.2531 20.7162 31.2531H11.1631C10.7153 31.2531 10.4167 31.5516 10.4167 31.9994V40.3584C10.4167 40.8062 10.7899 41.1794 11.1631 41.1794ZM11.9094 36.9999H15.1933V39.6867H11.9094V36.9999ZM16.686 39.6867V36.9999H19.9699V39.6867H16.686ZM19.9699 35.5072H16.686V32.8204H19.9699V35.5072ZM15.1933 32.7458V35.4326H11.9094V32.7458H15.1933ZM26.3138 35.3579C25.866 35.3579 25.5675 35.6565 25.5675 36.1043V37.597C25.5675 38.0448 25.866 38.3433 26.3138 38.3433C26.7616 38.3433 27.0601 38.0448 27.0601 37.597V36.1043C27.0601 35.7311 26.687 35.3579 26.3138 35.3579ZM44.5245 46.8516C44.9723 46.8516 45.2709 46.5531 45.2709 46.1053V40.2838C46.7635 39.9106 47.8831 38.6418 47.8831 36.9999C47.8831 35.5819 46.6889 31.3277 44.5245 31.3277C42.3601 31.3277 41.166 35.5819 41.166 36.9999C41.166 38.5672 42.2855 39.9106 43.7782 40.2838V46.1053C43.7782 46.5531 44.0767 46.8516 44.5245 46.8516ZM42.6587 36.9999C42.6587 35.4326 43.8528 32.8204 44.5245 32.8204C45.1962 32.8204 46.3904 35.5072 46.3904 36.9999C46.3904 37.7462 45.9426 38.4179 45.2709 38.7165V38.0448C45.2709 37.597 44.9723 37.2984 44.5245 37.2984C44.0767 37.2984 43.7782 37.597 43.7782 38.0448V38.7165C43.1065 38.4179 42.6587 37.7462 42.6587 36.9999Z" fill="#4288F0"/>
</svg>
