<svg width="61" height="60" viewBox="0 0 61 60" fill="#4288F0" xmlns="http://www.w3.org/2000/svg">
<path d="M59.0958 6.03047C59.6761 6.03047 60.063 5.6436 60.063 5.06328V2.83872C60.063 1.19449 58.9023 0.0338519 57.2581 0.0338519H55.227C53.6795 0.0338519 52.4221 1.29121 52.4221 2.83872V3.90264C51.5516 3.90264 50.7779 3.7092 50.0041 3.51576L34.529 0.130572C32.8847 -0.159588 31.1438 0.0338519 29.5963 0.71089L20.8915 4.77312C20.4079 4.96656 20.2145 5.54688 20.4079 6.03047C20.698 6.80423 21.5685 6.51407 21.6652 6.51407L30.37 2.45185C31.6274 1.96825 32.8847 1.77481 34.1421 2.06497L49.6173 5.45016C50.391 5.6436 51.3582 5.74032 52.4221 5.83704V19.3778C50.8746 19.2811 47.3927 20.6352 47.3927 20.6352C46.2321 21.022 44.878 21.2155 43.4272 21.2155H35.0126C33.9487 21.2155 33.0782 20.345 33.0782 19.2811C33.0782 18.2172 33.9487 17.3467 35.0126 17.3467H38.8814C40.2354 17.3467 41.3961 16.4762 41.783 15.2189C42.1698 13.9615 41.6862 12.6074 40.6223 11.9304L34.6257 7.86815C34.4323 7.86815 34.2388 7.77143 34.0454 7.77143H6.96385C5.31961 7.77143 4.06226 9.02879 4.06226 10.673V24.2138C4.06226 24.7941 4.44913 25.181 5.02945 25.181C5.60977 25.181 5.99665 24.7941 5.99665 24.2138V10.673C5.99665 10.0927 6.38353 9.70582 6.96385 9.70582H33.7552L39.5584 13.5746C40.1387 13.9615 40.042 14.5418 39.9453 14.7353C39.8486 14.9287 39.6551 15.509 38.8814 15.509H35.0126C32.8847 15.509 31.1438 17.25 31.1438 19.3778C31.1438 21.5056 32.8847 23.2466 35.0126 23.2466H43.4272C45.0714 23.2466 46.6189 22.9564 47.973 22.4728C47.973 22.4728 51.2615 21.1188 52.4221 21.3122V22.3761C52.4221 23.9236 53.6795 25.181 55.227 25.181H57.2581C58.8056 25.181 60.063 23.9236 60.063 22.3761V8.73863C60.063 8.15831 59.6761 7.77143 59.0958 7.77143C58.5155 7.77143 58.1286 8.15831 58.1286 8.73863V22.3761C58.1286 22.763 57.8384 23.2466 57.2581 23.2466H55.227C54.8401 23.2466 54.3565 22.9564 54.3565 22.3761V2.83872C54.3565 2.45185 54.6467 1.96825 55.227 1.96825H57.2581C57.7417 1.96825 58.1286 2.35513 58.1286 2.83872V5.06328C58.1286 5.54688 58.5155 6.03047 59.0958 6.03047ZM43.7173 29.0498C44.2977 29.0498 44.6845 28.6629 44.6845 28.0826C44.6845 27.5023 45.0714 27.1154 45.6517 27.1154C46.2321 27.1154 46.6189 26.7285 46.6189 26.1482C46.6189 25.5679 46.2321 25.181 45.6517 25.181C44.3944 25.181 43.3305 25.9547 42.9436 27.1154H37.9142C37.3338 27.1154 36.947 27.5023 36.947 28.0826C36.947 28.6629 37.3338 29.0498 37.9142 29.0498H43.7173Z" fill="inherit"/>
<path d="M35.8829 12.6073C35.8829 12.027 35.496 11.6401 34.9157 11.6401H10.8325C10.2522 11.6401 9.8653 12.027 9.8653 12.6073C9.8653 13.1877 9.47842 13.5745 8.89811 13.5745C8.31779 13.5745 7.93091 13.9614 7.93091 14.5417V26.1481C7.93091 26.7284 8.31779 27.1153 8.89811 27.1153C9.47842 27.1153 9.8653 27.5022 9.8653 28.0825C9.8653 28.6628 10.2522 29.0497 10.8325 29.0497H34.142C34.7223 29.0497 35.1092 28.6628 35.1092 28.0825C35.1092 27.5022 34.7223 27.1153 34.142 27.1153H11.6063C11.3161 26.2448 10.6391 25.6645 9.8653 25.3743V15.3155C10.7358 15.0253 11.3161 14.3483 11.6063 13.5745H34.9157C35.3993 13.5745 35.8829 13.1877 35.8829 12.6073ZM15.475 41.6233C13.8308 41.0429 12.1866 40.9462 10.5423 41.4298C10.0587 41.5265 9.67186 42.1068 9.8653 42.5904C9.96202 43.074 10.5423 43.4609 11.0259 43.2675C12.2833 42.9773 13.4439 42.9773 14.798 43.4609L16.2488 43.9445C16.3455 43.9445 17.216 44.138 17.5062 43.3642C17.6996 42.8806 17.4094 42.3003 16.9258 42.1068L15.475 41.6233Z" fill="#4288F0"/>
<path d="M52.6155 39.4953C51.6483 38.7216 50.391 38.5281 49.2303 38.8183L34.9158 44.5248C34.7224 42.4936 33.1749 41.0428 31.047 41.0428H26.4045C24.9537 41.0428 23.5996 40.8494 22.439 40.3658L15.3784 38.0445C13.5408 37.3675 11.6064 37.3675 9.76869 38.0445L7.73758 38.7216V37.7544C7.73758 36.1101 6.48022 34.8528 4.83599 34.8528H2.90159C1.25736 34.8528 0 36.1101 0 37.7544V39.6888C0 40.2691 0.386879 40.656 0.967197 40.656C1.54752 40.656 1.93439 40.2691 1.93439 39.6888V37.7544C1.93439 37.1741 2.32127 36.7872 2.90159 36.7872H4.83599C5.41631 36.7872 5.80318 37.1741 5.80318 37.7544V57.0983C5.80318 57.6786 5.41631 58.0655 4.83599 58.0655H2.90159C2.32127 58.0655 1.93439 57.6786 1.93439 57.0983V43.1707C1.93439 42.5904 1.54752 42.2035 0.967197 42.2035C0.386879 42.2035 0 42.5904 0 43.1707V57.0983C0 58.7426 1.25736 59.9999 2.90159 59.9999H4.83599C6.48022 59.9999 7.73758 58.7426 7.73758 57.0983V55.841C7.73758 55.841 11.9932 53.9066 16.7325 55.3574L23.9865 57.4852C24.9537 57.6786 28.629 58.259 31.9175 56.9049L38.0109 53.6164C38.4945 53.3263 38.6879 52.7459 38.3977 52.2623C38.1076 51.7787 37.5273 51.5853 37.0437 51.8755L31.4339 55.1639C29.3061 56.0344 26.9848 56.2278 24.7603 55.6475L17.5063 53.5197C12.767 52.0689 7.93102 53.8098 7.93102 53.8098V40.8494L10.5425 39.8822C11.9932 39.3986 13.3473 39.3986 14.8948 39.8822L21.9554 42.2035C23.3095 42.6871 24.857 42.9772 26.5012 42.9772H31.1437C32.2077 42.9772 33.0781 43.8477 33.0781 44.9116C33.0781 45.9756 32.2077 46.846 31.1437 46.846H20.5046C19.9243 46.846 19.5374 47.2329 19.5374 47.8132C19.5374 48.3935 19.9243 48.7804 20.5046 48.7804H31.1437C32.5945 48.7804 33.8519 48.0067 34.5289 46.846L49.8107 40.7527C51.2615 40.2691 52.2287 42.01 52.2287 42.6871C52.2287 43.4608 51.7451 44.2346 50.9713 44.5248L46.5222 46.9427C46.0386 47.2329 45.8451 47.8132 46.1353 48.2968C46.5222 48.9739 47.2959 48.7804 47.4894 48.6837L51.9385 46.2657C53.2926 45.5887 54.2598 44.2346 54.2598 42.5904C54.163 41.4297 53.5827 40.2691 52.6155 39.4953Z" fill="#4288F0"/>
<path d="M43.137 48.7806L41.2994 49.7478C40.8158 50.038 40.6223 50.6183 40.9125 51.1019C41.2994 51.7789 42.0731 51.5855 42.2666 51.4888L44.1042 50.5216C44.5878 50.2314 44.7813 49.6511 44.4911 49.1675C44.201 48.6839 43.6206 48.4905 43.137 48.7806ZM13.7342 17.4434H14.7014C15.2817 17.4434 15.6686 17.0565 15.6686 16.4762C15.6686 15.8959 15.2817 15.509 14.7014 15.509H13.4441C12.4769 15.509 11.7998 16.1861 11.7998 17.1533V18.4106C11.7998 18.9909 12.1867 19.3778 12.767 19.3778C13.3474 19.3778 13.7342 18.9909 13.7342 18.4106V17.4434ZM12.767 21.3122C12.1867 21.3122 11.7998 21.6991 11.7998 22.2794V24.2138C11.7998 24.7941 12.1867 25.181 12.767 25.181C13.3474 25.181 13.7342 24.7941 13.7342 24.2138V22.2794C13.7342 21.6991 13.3474 21.3122 12.767 21.3122ZM6.96385 32.9186H47.5861C49.2304 32.9186 50.4877 31.6612 50.4877 30.017V24.2138C50.4877 23.6335 50.1008 23.2466 49.5205 23.2466C48.9402 23.2466 48.5533 23.6335 48.5533 24.2138V30.017C48.5533 30.5973 48.1665 30.9842 47.5861 30.9842H6.96385C6.38353 30.9842 5.99665 30.5973 5.99665 30.017V28.0826C5.99665 27.5023 5.60977 27.1154 5.02945 27.1154C4.44913 27.1154 4.06226 27.5023 4.06226 28.0826V30.017C4.06226 31.6612 5.31961 32.9186 6.96385 32.9186Z" fill="#4288F0"/>
</svg>
