<svg width="12" height="12" viewBox="0 0 12 12" fill="none" xmlns="http://www.w3.org/2000/svg">
<path fill-rule="evenodd" clip-rule="evenodd" d="M4.8 10.8H2.0484L4.8 8.04844L3.9516 7.2L1.2 9.95156V7.2H0V12H4.8V10.8ZM12 0H7.2V1.2H9.9516L7.22219 3.9293L8.07059 4.77773L10.8 2.04844V4.8H12V0Z" fill="#6E6E6E"/>
<path fill-rule="evenodd" clip-rule="evenodd" d="M1.2 4.8L1.2 2.0484L3.95156 4.8L4.8 3.9516L2.04844 1.2L4.8 1.2L4.8 -3.14722e-07L0 -5.24537e-07L-2.09815e-07 4.8L1.2 4.8ZM12 12L12 7.2L10.8 7.2L10.8 9.9516L8.0707 7.22219L7.22226 8.07059L9.95156 10.8L7.2 10.8L7.2 12L12 12Z" fill="#6E6E6E"/>
</svg>
