<svg width="16" height="18" viewBox="0 0 16 18" fill="none" xmlns="http://www.w3.org/2000/svg">
<path d="M14.4368 12.5237V5.5524C14.4368 2.21194 11.1055 2.2211 11.1055 2.2211H9.9953V0L6.664 3.332L9.9953 6.6633V4.4422H11.1055C12.0846 4.4422 12.2157 5.5524 12.2157 5.5524V12.5237C11.8787 12.7168 11.5987 12.9953 11.4037 13.3312C11.2088 13.6671 11.1059 14.0484 11.1055 14.4368C11.1055 15.6626 12.1008 16.6579 13.3266 16.6579C14.5524 16.6579 15.5477 15.6619 15.5477 14.4368C15.5468 14.0485 15.4438 13.6673 15.2489 13.3315C15.054 12.9957 14.7742 12.7171 14.4375 12.5237H14.4368ZM13.3266 15.5477C13.0321 15.5477 12.7496 15.4308 12.5413 15.2226C12.333 15.0144 12.2159 14.732 12.2157 14.4375C12.223 14.1478 12.3432 13.8724 12.5507 13.6701C12.7581 13.4678 13.0365 13.3546 13.3262 13.3546C13.616 13.3546 13.8943 13.4678 14.1018 13.6701C14.3093 13.8724 14.4295 14.1478 14.4368 14.4375C14.4368 15.0515 13.9398 15.5477 13.3266 15.5477ZM1.1102 5.47627V12.4469C1.1102 15.7874 4.4422 15.7789 4.4422 15.7789H5.5524V18L8.88369 14.6687L5.5524 11.3367V13.5578H4.4422C3.46311 13.5578 3.332 12.4476 3.332 12.4476V5.47697C3.66892 5.28369 3.94895 5.00502 4.14385 4.66903C4.33876 4.33305 4.44167 3.95163 4.4422 3.56321C4.4422 2.33741 3.4469 1.34211 2.2211 1.34211C0.995301 1.34211 0 2.33741 0 3.56321C0 4.38369 0.448308 5.0914 1.1102 5.47697V5.47627ZM2.2211 4.71992C1.92666 4.71992 1.64427 4.60296 1.43607 4.39476C1.22787 4.18655 1.1109 3.90417 1.1109 3.60973C1.1109 3.31528 1.22787 3.0329 1.43607 2.8247C1.64427 2.6165 1.92666 2.49953 2.2211 2.49953C2.51554 2.49953 2.79792 2.6165 3.00613 2.8247C3.21433 3.0329 3.3313 3.31528 3.3313 3.60973C3.3313 3.90417 3.21433 4.18655 3.00613 4.39476C2.79792 4.60296 2.51554 4.71992 2.2211 4.71992Z" fill="white"/>
</svg>
